<svg version="1.1" id="Layer_1" xmlns="http://www.w3.org/2000/svg" xmlns:xlink="http://www.w3.org/1999/xlink" x="0px" y="0px"
	 width="100%" viewBox="0 0 500 114" enable-background="new 0 0 500 114" xml:space="preserve">
<path fill="#FDFDFD" opacity="1.000000" stroke="none" 
	d="
M1.000000,35.000000 
	C1.000000,23.670732 1.000000,12.341465 1.000000,1.009148 
	C167.602798,1.006099 334.205597,1.006099 500.904205,1.006099 
	C500.904205,38.922295 500.904205,76.844910 500.904205,114.883759 
	C334.333374,114.883759 167.666702,114.883759 1.000000,114.883759 
	C1.000000,91.253792 1.000000,67.595558 1.350586,43.526657 
	C4.969539,47.943142 10.370270,49.792271 14.232077,46.760536 
	C15.835359,45.501869 16.184231,42.645344 17.103546,40.515446 
	C15.272473,40.125927 13.315909,39.121765 11.634454,39.465061 
	C7.054451,40.400146 4.631948,38.380329 5.669000,33.731388 
	C6.019142,32.161755 7.014556,30.736067 7.715071,29.244595 
	C7.384228,28.936750 7.053385,28.628908 6.722542,28.321064 
	C4.815028,30.547377 2.907514,32.773689 1.000000,35.000000 
M284.566772,21.655149 
	C283.711517,21.770994 282.856262,21.886839 281.139191,21.829182 
	C277.629517,22.351286 274.119873,22.873390 270.610199,23.395494 
	C270.515106,23.935423 270.419983,24.475353 270.324860,25.015282 
	C276.810577,24.295115 277.391357,27.868393 277.326263,32.717388 
	C277.111969,48.686245 277.169250,64.660324 277.285919,80.631203 
	C277.326782,86.225288 279.367493,88.152275 284.332214,88.124588 
	C289.054108,88.098251 291.033447,85.887604 291.010223,80.349358 
	C290.962067,68.873169 290.259399,57.364849 290.917236,45.932537 
	C291.373260,38.007034 287.634216,29.172596 295.518890,21.903482 
	C291.494995,21.903482 288.264679,21.903482 284.566772,21.655149 
M43.065552,21.886106 
	C33.813511,22.601219 24.277197,20.368364 14.586737,24.768606 
	C15.914827,25.079859 16.586155,25.427216 17.207487,25.353449 
	C23.515602,24.604546 24.951433,25.812967 24.980808,32.127895 
	C25.003263,36.955200 24.949030,41.782818 24.948257,46.610294 
	C24.946363,58.429287 24.955088,70.248283 24.960802,82.067276 
	C24.962683,85.955666 27.091551,87.783943 30.796461,88.074318 
	C34.340599,88.352081 37.534378,87.375435 37.753971,83.440720 
	C38.234077,74.838142 38.301632,66.205063 38.292831,57.584698 
	C38.283329,48.275143 37.947689,38.966362 37.850742,29.656244 
	C37.811420,25.879662 39.702579,23.758747 44.299591,23.947931 
	C46.163124,25.205626 48.432724,26.124321 49.816830,27.782261 
	C54.678215,33.605450 53.538464,40.584122 52.961277,47.377361 
	C52.496967,52.842079 50.393402,57.158897 43.720959,58.657871 
	C55.880047,59.596367 62.368504,56.279343 64.363991,46.249329 
	C65.634857,39.861538 69.831551,38.503677 74.045387,35.940613 
	C76.571411,40.379566 74.370964,42.654018 72.006035,43.736404 
	C72.775848,47.097855 73.923111,49.938332 73.991821,52.804657 
	C74.219238,62.293377 74.016830,71.791611 74.061470,81.285805 
	C74.086456,86.601341 75.576241,88.009178 80.344322,88.153587 
	C85.182968,88.300133 86.198227,85.523964 86.157486,81.458145 
	C86.052338,70.965202 86.042206,60.470932 86.070564,49.977394 
	C86.074951,48.351582 86.350372,46.695431 86.729126,45.107861 
	C87.654396,41.229469 88.713631,37.383041 89.801147,33.208141 
	C98.068047,33.207188 99.744781,32.295853 100.163124,26.938171 
	C100.611565,21.195213 99.156479,20.152916 88.787865,18.789932 
	C93.331261,11.562016 93.441048,9.096810 89.321953,6.797770 
	C84.044228,3.852050 79.443192,6.007087 77.034866,11.776532 
	C74.539192,10.656391 71.822075,8.338462 69.560463,8.720079 
	C67.131996,9.129852 64.288307,11.659077 63.128181,14.006060 
	C61.025177,18.260515 64.350250,21.068436 67.241219,23.295422 
	C63.014664,27.596613 58.668900,26.302561 53.859497,24.041761 
	C50.901714,22.651369 47.308495,22.612738 43.065552,21.886106 
M451.594482,56.127575 
	C450.292206,51.513721 446.453094,46.897858 452.814056,42.593449 
	C454.050415,41.756798 453.811829,37.518848 452.969269,35.348331 
	C452.549652,34.267338 449.224121,34.314362 445.879059,33.543827 
	C447.090759,35.761513 447.729858,36.421040 447.785217,37.126373 
	C447.965088,39.418640 447.931366,41.727673 447.979858,44.030254 
	C446.014740,43.972839 444.045319,43.979073 442.085419,43.845257 
	C437.485199,43.531158 432.823730,42.487984 428.306152,42.937302 
	C419.562042,43.806995 413.402832,50.543335 414.273071,59.262810 
	C414.845642,64.999557 417.865601,70.492043 420.071014,76.913124 
	C414.915863,83.920448 414.828094,85.079033 419.720490,92.951439 
	C419.143036,93.488213 418.606903,94.135803 417.937164,94.583664 
	C414.764557,96.705231 412.272156,99.783554 414.075592,103.287666 
	C415.248199,105.566071 418.587036,107.355728 421.301514,108.097252 
	C429.503418,110.337830 437.754456,109.655319 445.877533,107.126129 
	C447.372070,106.660782 449.202393,106.208260 450.594543,106.647453 
	C462.281799,110.334602 471.495911,106.060089 479.288696,97.735611 
	C492.721832,83.385956 497.421387,65.707855 498.206421,46.620529 
	C498.328705,43.646942 497.461090,41.664654 494.027710,42.034370 
	C490.150452,42.451878 491.518738,44.929085 491.927795,47.213158 
	C493.952484,58.517853 492.697418,69.289406 486.203400,80.208977 
	C484.881317,77.016853 483.808380,74.636620 482.900604,72.194984 
	C480.185730,64.892723 477.891235,57.410316 474.766937,50.290359 
	C471.138794,42.022194 463.299255,40.013412 456.198303,44.100216 
	C458.553314,47.442192 461.720581,50.539986 463.204285,54.301800 
	C467.826630,66.021469 471.808075,77.993782 476.045654,89.865433 
	C477.245972,93.228188 476.665192,96.390854 473.746765,98.308342 
	C469.786926,100.910004 465.643097,103.530632 461.201355,105.017014 
	C456.618347,106.550652 454.727112,104.459167 455.032410,99.668808 
	C455.626373,90.349297 453.118256,87.115097 443.688019,85.733162 
	C438.098511,84.914055 432.374390,84.887085 426.856018,83.779984 
	C425.009064,83.409462 423.611816,80.797462 422.008972,79.210068 
	C423.727234,78.393837 425.374969,77.273796 427.185120,76.853676 
	C428.744476,76.491776 430.489868,77.013840 432.151459,76.996964 
	C445.787292,76.858459 452.142914,70.334137 451.594482,56.127575 
M102.288101,77.786674 
	C101.243004,80.502136 99.415184,83.210052 99.388916,85.935333 
	C99.365990,88.315224 101.371803,90.714661 102.535324,93.221863 
	C101.316414,94.232269 99.629013,95.349548 98.293144,96.792320 
	C94.615997,100.763710 95.687355,106.002022 100.860641,107.490158 
	C111.328079,110.501236 121.876579,110.856491 132.010757,106.040260 
	C138.072281,103.159546 141.293121,95.592712 137.690353,91.249779 
	C135.271149,88.333580 131.116409,86.182922 127.347450,85.221504 
	C121.937256,83.841415 116.122040,84.126137 110.585686,83.118164 
	C108.845047,82.801262 106.072517,80.534370 106.143387,79.295631 
	C106.367256,75.382515 109.368584,77.353920 111.434608,77.744408 
	C126.258621,80.546242 139.162720,67.368347 134.212723,53.914169 
	C132.442871,49.103642 132.324280,45.791946 135.774460,41.919735 
	C136.974777,40.572582 137.391342,37.062332 136.463486,35.696438 
	C135.539078,34.335625 132.479324,34.425369 131.174545,34.089718 
	C131.174545,37.975197 131.174545,40.844879 131.174545,43.714565 
	C128.643967,43.516380 126.020988,43.680161 123.597710,43.061611 
	C107.151024,38.863529 94.661201,48.930180 97.944603,64.150787 
	C98.644585,67.395638 101.133171,70.225380 102.533150,73.364372 
	C103.023170,74.463081 102.717995,75.916451 102.288101,77.786674 
M159.594742,77.061607 
	C161.592163,77.027321 163.600647,77.116547 165.585266,76.939110 
	C180.733856,75.584679 183.724319,64.211044 181.293793,54.418190 
	C180.031647,49.332897 179.160706,45.645447 183.069412,41.523766 
	C184.191528,40.340515 184.290802,36.667358 183.277695,35.401154 
	C182.238144,34.101936 179.262817,34.351604 177.134705,33.923401 
	C177.241089,35.931347 177.996979,36.581181 178.051956,37.285706 
	C178.219528,39.433361 178.655441,41.839790 177.857635,43.647011 
	C177.533142,44.382111 174.268799,44.062546 172.395920,43.815102 
	C169.445358,43.425274 166.562454,42.364727 163.611786,42.164330 
	C155.113297,41.587143 146.917053,47.008430 145.071793,54.229790 
	C142.954773,62.514698 145.374985,69.570160 151.384781,75.338028 
	C144.711624,83.299431 144.503494,86.296890 150.014343,92.935608 
	C149.226120,93.527992 148.164703,93.955215 147.707825,94.736137 
	C146.123474,97.444168 143.588608,100.326126 143.708008,103.041069 
	C143.786011,104.814377 147.662643,107.493538 150.131622,107.877609 
	C156.308929,108.838531 162.739090,109.482338 168.902908,108.788445 
	C173.452332,108.276283 178.310760,106.225899 182.017075,103.487755 
	C187.921890,99.125420 186.793518,90.840057 180.288773,87.423836 
	C177.850586,86.143326 174.988846,85.414619 172.237808,85.040909 
	C167.465927,84.392670 162.614182,84.352928 157.825546,83.801094 
	C153.734924,83.329689 151.210587,80.119034 153.222610,78.197342 
	C154.361023,77.110016 156.796219,77.380432 159.594742,77.061607 
M372.435303,93.207161 
	C371.092834,94.446198 369.616760,95.570267 368.433167,96.945992 
	C364.979736,100.960014 366.339111,106.242142 371.402527,107.582863 
	C381.096588,110.149719 390.815735,110.374901 400.302856,106.513145 
	C405.575775,104.366768 408.635071,99.811104 408.221893,95.019875 
	C407.835266,90.536476 404.690826,87.293617 398.771606,86.197762 
	C393.218628,85.169724 387.554382,84.751152 381.948273,83.996178 
	C380.337250,83.779228 378.444824,83.745300 377.256165,82.857742 
	C376.163391,82.041794 375.334473,80.169579 375.389801,78.803207 
	C375.419281,78.075081 377.505310,77.046646 378.773132,76.844818 
	C380.545105,76.562721 382.419159,76.983200 384.250702,77.004631 
	C400.619843,77.196129 408.211487,66.434212 402.980042,50.906384 
	C402.336121,48.995094 403.385132,46.396496 404.011261,44.220455 
	C404.358337,43.014202 405.950012,42.087906 406.101532,40.921230 
	C406.350861,39.001442 406.545166,36.463959 405.519836,35.177273 
	C404.658905,34.096958 402.025818,34.428913 399.203308,33.981060 
	C400.322357,36.120068 401.004608,36.834465 401.017822,37.561031 
	C401.056000,39.660347 401.317200,42.005482 400.463074,43.751278 
	C400.108826,44.475399 397.133972,44.054867 395.368042,43.923584 
	C391.090912,43.605618 386.785950,42.584538 382.560303,42.866596 
	C372.681213,43.526012 367.098694,50.213890 366.959595,60.062832 
	C366.869141,66.468842 370.069763,71.091827 374.132935,75.373718 
	C367.705139,83.151680 367.509552,85.793182 372.435303,93.207161 
M190.170685,73.209862 
	C189.531174,78.159660 189.413116,83.101952 194.347702,86.060539 
	C201.573318,90.392754 207.672028,86.929764 213.451538,82.592773 
	C217.888687,89.495422 225.147125,89.879166 229.019043,84.857162 
	C227.934158,81.815971 226.653137,79.752113 226.538101,77.625183 
	C226.142807,70.317055 226.245544,62.983658 225.986435,55.665985 
	C225.749802,48.982838 223.167633,44.995708 216.825348,43.739830 
	C211.738052,42.732468 206.163315,42.449890 201.146332,43.490997 
	C198.244812,44.093117 195.431519,47.619190 193.784302,50.515167 
	C193.141373,51.645493 195.452850,55.034698 197.146210,56.615898 
	C197.777420,57.205315 201.145035,56.087646 202.111160,54.848713 
	C204.350372,51.977184 201.128067,51.054932 199.496323,49.635139 
	C199.155304,49.338398 199.040268,48.781921 198.835800,48.374466 
	C201.112976,45.257557 204.886765,43.475418 208.176285,44.976742 
	C210.299072,45.945564 212.449677,48.186584 213.276306,50.356972 
	C214.592468,53.812641 212.745804,56.849033 209.687836,58.821133 
	C208.177170,59.795364 206.331924,60.236748 204.761887,61.135525 
	C199.439392,64.182396 192.453354,65.168640 190.170685,73.209862 
M327.007294,79.352524 
	C332.402618,89.063568 350.563751,90.819885 357.099487,81.838715 
	C347.892212,84.717842 341.863037,81.357964 337.967285,73.464783 
	C336.026611,69.532799 336.587555,66.725334 340.752228,64.478142 
	C345.707916,61.804127 350.600800,58.890228 355.090942,55.509266 
	C360.284790,51.598423 359.231171,45.193882 352.923370,43.929478 
	C347.938263,42.930206 342.134033,42.760876 337.406342,44.347191 
	C323.461823,49.026077 320.257172,66.195274 327.007294,79.352524 
M305.717712,34.329681 
	C306.116547,43.258091 308.518188,52.764568 298.414673,58.687141 
	C308.599609,60.621410 313.535370,55.418022 315.976501,49.750500 
	C319.020172,42.684265 319.394226,35.401814 314.422333,28.937395 
	C310.657837,24.042873 300.727539,20.923929 295.205414,22.827244 
	C300.837494,24.721355 304.198700,28.203674 305.717712,34.329681 
M256.559875,45.674347 
	C259.851318,48.795799 263.891479,49.590122 267.347076,46.955101 
	C269.029907,45.671883 269.047729,42.205067 269.819244,39.726707 
	C267.976471,39.513046 266.017639,38.796398 264.314880,39.189434 
	C260.663116,40.032356 258.625610,38.962032 259.071442,35.262028 
	C259.360748,32.861378 260.793640,30.598532 261.713776,28.273823 
	C255.580429,29.012877 253.063141,36.544083 256.559875,45.674347 
M269.507080,25.474117 
	C269.507080,25.474117 269.509552,25.513510 269.507080,25.474117 
z"/>
<path fill="#0E0E0E" opacity="1.000000" stroke="none" 
	d="
M1.000000,35.444164 
	C2.907514,32.773689 4.815028,30.547377 6.722542,28.321064 
	C7.053385,28.628908 7.384228,28.936750 7.715071,29.244595 
	C7.014556,30.736067 6.019142,32.161755 5.669000,33.731388 
	C4.631948,38.380329 7.054451,40.400146 11.634454,39.465061 
	C13.315909,39.121765 15.272473,40.125927 17.103546,40.515446 
	C16.184231,42.645344 15.835359,45.501869 14.232077,46.760536 
	C10.370270,49.792271 4.969539,47.943142 1.350586,43.057999 
	C1.000000,40.629444 1.000000,38.258884 1.000000,35.444164 
z"/>
<path fill="#0B0B0B" opacity="1.000000" stroke="none" 
	d="
M451.652863,56.546078 
	C452.142914,70.334137 445.787292,76.858459 432.151459,76.996964 
	C430.489868,77.013840 428.744476,76.491776 427.185120,76.853676 
	C425.374969,77.273796 423.727234,78.393837 422.008972,79.210052 
	C423.611816,80.797462 425.009064,83.409462 426.856018,83.779984 
	C432.374390,84.887085 438.098511,84.914055 443.688019,85.733162 
	C453.118256,87.115097 455.626373,90.349297 455.032410,99.668808 
	C454.727112,104.459167 456.618347,106.550652 461.201355,105.017014 
	C465.643097,103.530632 469.786926,100.910004 473.746765,98.308342 
	C476.665192,96.390854 477.245972,93.228188 476.045654,89.865433 
	C471.808075,77.993782 467.826630,66.021469 463.204285,54.301800 
	C461.720581,50.539986 458.553314,47.442192 456.198303,44.100216 
	C463.299255,40.013412 471.138794,42.022194 474.766937,50.290359 
	C477.891235,57.410316 480.185730,64.892723 482.900604,72.194984 
	C483.808380,74.636620 484.881317,77.016853 486.203400,80.208977 
	C492.697418,69.289406 493.952484,58.517853 491.927795,47.213158 
	C491.518738,44.929085 490.150452,42.451878 494.027710,42.034370 
	C497.461090,41.664654 498.328705,43.646942 498.206421,46.620529 
	C497.421387,65.707855 492.721832,83.385956 479.288696,97.735611 
	C471.495911,106.060089 462.281799,110.334602 450.594543,106.647453 
	C449.202393,106.208260 447.372070,106.660782 445.877533,107.126129 
	C437.754456,109.655319 429.503418,110.337830 421.301514,108.097252 
	C418.587036,107.355728 415.248199,105.566071 414.075592,103.287666 
	C412.272156,99.783554 414.764557,96.705231 417.937164,94.583664 
	C418.606903,94.135803 419.143036,93.488213 419.720490,92.951439 
	C414.828094,85.079033 414.915863,83.920448 420.071014,76.913124 
	C417.865601,70.492043 414.845642,64.999557 414.273071,59.262810 
	C413.402832,50.543335 419.562042,43.806995 428.306152,42.937302 
	C432.823730,42.487984 437.485199,43.531158 442.085419,43.845257 
	C444.045319,43.979073 446.014740,43.972839 447.979858,44.030254 
	C447.931366,41.727673 447.965088,39.418640 447.785217,37.126373 
	C447.729858,36.421040 447.090759,35.761513 445.879059,33.543827 
	C449.224121,34.314362 452.549652,34.267338 452.969269,35.348331 
	C453.811829,37.518848 454.050415,41.756798 452.814056,42.593449 
	C446.453094,46.897858 450.292206,51.513721 451.652863,56.546078 
M439.573883,55.049000 
	C439.424500,53.729275 439.719452,52.083038 439.037354,51.154736 
	C437.389923,48.912796 435.626099,45.989426 433.285339,45.206768 
	C429.919586,44.081413 427.417236,47.083195 427.156219,50.181679 
	C426.648987,56.203022 426.494324,62.339699 427.108093,68.334969 
	C427.431763,71.496223 429.909760,75.442039 433.663239,74.159576 
	C436.051483,73.343552 438.139893,69.619377 438.967987,66.790901 
	C439.963226,63.391510 439.476959,59.558384 439.573883,55.049000 
M444.092163,96.384468 
	C437.805267,95.317841 431.530884,93.668831 425.223938,93.533157 
	C423.287109,93.491486 420.413757,97.323250 419.599945,99.896904 
	C419.126221,101.395096 421.443176,105.059578 423.273682,105.771523 
	C429.820862,108.317970 436.654816,108.043175 442.922089,104.601387 
	C445.925873,102.951813 447.706238,100.296318 444.092163,96.384468 
z"/>
<path fill="#060606" opacity="1.000000" stroke="none" 
	d="
M44.000595,21.967148 
	C47.308495,22.612738 50.901714,22.651369 53.859497,24.041761 
	C58.668900,26.302561 63.014664,27.596613 67.241219,23.295422 
	C64.350250,21.068436 61.025177,18.260515 63.128181,14.006060 
	C64.288307,11.659077 67.131996,9.129852 69.560463,8.720079 
	C71.822075,8.338462 74.539192,10.656391 77.034866,11.776532 
	C79.443192,6.007087 84.044228,3.852050 89.321953,6.797770 
	C93.441048,9.096810 93.331261,11.562016 88.787865,18.789932 
	C99.156479,20.152916 100.611565,21.195213 100.163124,26.938171 
	C99.744781,32.295853 98.068047,33.207188 89.801147,33.208141 
	C88.713631,37.383041 87.654396,41.229469 86.729126,45.107861 
	C86.350372,46.695431 86.074951,48.351582 86.070564,49.977394 
	C86.042206,60.470932 86.052338,70.965202 86.157486,81.458145 
	C86.198227,85.523964 85.182968,88.300133 80.344322,88.153587 
	C75.576241,88.009178 74.086456,86.601341 74.061470,81.285805 
	C74.016830,71.791611 74.219238,62.293377 73.991821,52.804657 
	C73.923111,49.938332 72.775848,47.097855 72.006035,43.736404 
	C74.370964,42.654018 76.571411,40.379566 74.045387,35.940613 
	C69.831551,38.503677 65.634857,39.861538 64.363991,46.249329 
	C62.368504,56.279343 55.880047,59.596367 43.720959,58.657871 
	C50.393402,57.158897 52.496967,52.842079 52.961277,47.377361 
	C53.538464,40.584122 54.678215,33.605450 49.816830,27.782261 
	C48.432724,26.124321 46.163124,25.205626 44.075722,23.413994 
	C43.901432,22.575754 43.951012,22.271452 44.000595,21.967148 
M82.832466,20.660332 
	C78.303284,18.489120 74.206116,19.538881 74.013885,23.370195 
	C73.903831,25.563635 75.244469,28.477798 76.923943,29.875799 
	C77.970924,30.747313 81.254730,29.977758 82.852966,28.917248 
	C85.923943,26.879496 85.493225,23.931568 82.832466,20.660332 
z"/>
<path fill="#0B0B0B" opacity="1.000000" stroke="none" 
	d="
M102.532021,77.497269 
	C102.717995,75.916451 103.023170,74.463081 102.533150,73.364372 
	C101.133171,70.225380 98.644585,67.395638 97.944603,64.150787 
	C94.661201,48.930180 107.151024,38.863529 123.597710,43.061611 
	C126.020988,43.680161 128.643967,43.516380 131.174545,43.714565 
	C131.174545,40.844879 131.174545,37.975197 131.174545,34.089718 
	C132.479324,34.425369 135.539078,34.335625 136.463486,35.696438 
	C137.391342,37.062332 136.974777,40.572582 135.774460,41.919735 
	C132.324280,45.791946 132.442871,49.103642 134.212723,53.914169 
	C139.162720,67.368347 126.258621,80.546242 111.434608,77.744408 
	C109.368584,77.353920 106.367256,75.382515 106.143387,79.295631 
	C106.072517,80.534370 108.845047,82.801262 110.585686,83.118164 
	C116.122040,84.126137 121.937256,83.841415 127.347450,85.221504 
	C131.116409,86.182922 135.271149,88.333580 137.690353,91.249779 
	C141.293121,95.592712 138.072281,103.159546 132.010757,106.040260 
	C121.876579,110.856491 111.328079,110.501236 100.860641,107.490158 
	C95.687355,106.002022 94.615997,100.763710 98.293144,96.792320 
	C99.629013,95.349548 101.316414,94.232269 102.535324,93.221863 
	C101.371803,90.714661 99.365990,88.315224 99.388916,85.935333 
	C99.415184,83.210052 101.243004,80.502136 102.532021,77.497269 
M116.359802,45.104095 
	C114.377762,46.629833 110.853104,48.005451 110.687439,49.707943 
	C110.054771,56.209244 110.099365,62.860226 110.812607,69.354088 
	C111.008659,71.139114 114.306923,73.620918 116.375916,73.826302 
	C117.960258,73.983582 120.955696,71.318085 121.388107,69.458138 
	C122.492744,64.706871 122.738907,59.711605 122.903748,54.799690 
	C123.047035,50.530228 121.199600,47.100296 116.359802,45.104095 
M122.419434,94.780579 
	C118.313553,94.284981 114.219292,93.607040 110.098564,93.344528 
	C105.891510,93.076515 103.757538,95.797546 102.871368,99.507973 
	C101.978622,103.245934 104.381523,105.628868 107.460617,105.909981 
	C112.771294,106.394829 118.260437,106.402023 123.493759,105.527222 
	C125.575920,105.179161 127.176529,101.950348 128.996368,100.033012 
	C127.075691,98.337997 125.155022,96.642975 122.419434,94.780579 
z"/>
<path fill="#0B0B0B" opacity="1.000000" stroke="none" 
	d="
M159.121033,77.050461 
	C156.796219,77.380432 154.361023,77.110016 153.222610,78.197342 
	C151.210587,80.119034 153.734924,83.329689 157.825546,83.801094 
	C162.614182,84.352928 167.465927,84.392670 172.237808,85.040909 
	C174.988846,85.414619 177.850586,86.143326 180.288773,87.423836 
	C186.793518,90.840057 187.921890,99.125420 182.017075,103.487755 
	C178.310760,106.225899 173.452332,108.276283 168.902908,108.788445 
	C162.739090,109.482338 156.308929,108.838531 150.131622,107.877609 
	C147.662643,107.493538 143.786011,104.814377 143.708008,103.041069 
	C143.588608,100.326126 146.123474,97.444168 147.707825,94.736137 
	C148.164703,93.955215 149.226120,93.527992 150.014343,92.935608 
	C144.503494,86.296890 144.711624,83.299431 151.384781,75.338028 
	C145.374985,69.570160 142.954773,62.514698 145.071793,54.229790 
	C146.917053,47.008430 155.113297,41.587143 163.611786,42.164330 
	C166.562454,42.364727 169.445358,43.425274 172.395920,43.815102 
	C174.268799,44.062546 177.533142,44.382111 177.857635,43.647011 
	C178.655441,41.839790 178.219528,39.433361 178.051956,37.285706 
	C177.996979,36.581181 177.241089,35.931347 177.134705,33.923401 
	C179.262817,34.351604 182.238144,34.101936 183.277695,35.401154 
	C184.290802,36.667358 184.191528,40.340515 183.069412,41.523766 
	C179.160706,45.645447 180.031647,49.332897 181.293793,54.418190 
	C183.724319,64.211044 180.733856,75.584679 165.585266,76.939110 
	C163.600647,77.116547 161.592163,77.027321 159.121033,77.050461 
M169.983490,59.500134 
	C169.161621,55.532234 169.054581,51.214169 167.327972,47.689461 
	C165.385910,43.724899 161.098068,44.114628 158.469513,47.790672 
	C155.070267,52.544529 155.580017,67.831703 159.282761,72.179527 
	C162.014877,75.387627 165.601913,75.526482 167.318985,71.792610 
	C168.910965,68.330750 169.147354,64.245506 169.983490,59.500134 
M173.578827,104.135185 
	C177.436234,99.818390 176.843658,96.450111 171.386917,95.142883 
	C166.438248,93.957390 161.150436,93.082108 156.172821,93.603622 
	C153.792496,93.853020 150.970718,97.298111 149.817291,99.937500 
	C148.433853,103.103210 151.416321,105.045631 154.197067,105.962708 
	C160.587997,108.070389 166.906616,107.856308 173.578827,104.135185 
z"/>
<path fill="#0B0B0B" opacity="1.000000" stroke="none" 
	d="
M372.603943,92.828918 
	C367.509552,85.793182 367.705139,83.151680 374.132935,75.373718 
	C370.069763,71.091827 366.869141,66.468842 366.959595,60.062832 
	C367.098694,50.213890 372.681213,43.526012 382.560303,42.866596 
	C386.785950,42.584538 391.090912,43.605618 395.368042,43.923584 
	C397.133972,44.054867 400.108826,44.475399 400.463074,43.751278 
	C401.317200,42.005482 401.056000,39.660347 401.017822,37.561031 
	C401.004608,36.834465 400.322357,36.120068 399.203308,33.981060 
	C402.025818,34.428913 404.658905,34.096958 405.519836,35.177273 
	C406.545166,36.463959 406.350861,39.001442 406.101532,40.921230 
	C405.950012,42.087906 404.358337,43.014202 404.011261,44.220455 
	C403.385132,46.396496 402.336121,48.995094 402.980042,50.906384 
	C408.211487,66.434212 400.619843,77.196129 384.250702,77.004631 
	C382.419159,76.983200 380.545105,76.562721 378.773132,76.844818 
	C377.505310,77.046646 375.419281,78.075081 375.389801,78.803207 
	C375.334473,80.169579 376.163391,82.041794 377.256165,82.857742 
	C378.444824,83.745300 380.337250,83.779228 381.948273,83.996178 
	C387.554382,84.751152 393.218628,85.169724 398.771606,86.197762 
	C404.690826,87.293617 407.835266,90.536476 408.221893,95.019875 
	C408.635071,99.811104 405.575775,104.366768 400.302856,106.513145 
	C390.815735,110.374901 381.096588,110.149719 371.402527,107.582863 
	C366.339111,106.242142 364.979736,100.960014 368.433167,96.945992 
	C369.616760,95.570267 371.092834,94.446198 372.603943,92.828918 
M392.321594,65.506241 
	C392.290192,60.853184 392.799805,56.105030 392.005493,51.586071 
	C391.591125,49.228619 389.223358,46.726154 387.059784,45.375111 
	C386.012756,44.721306 382.779175,46.033245 381.612518,47.384781 
	C377.541321,52.101093 378.042633,67.252922 382.033752,72.101898 
	C384.578583,75.193748 387.535278,75.382828 389.883423,72.197830 
	C391.094604,70.554977 391.515167,68.329185 392.321594,65.506241 
M381.518219,93.028633 
	C376.020142,92.921715 372.598572,95.613922 372.202148,100.358772 
	C371.915924,103.785179 375.506683,107.001419 380.642792,107.029579 
	C385.064819,107.053825 389.667023,106.775726 393.843903,105.499771 
	C395.995789,104.842392 399.122253,101.255554 398.736115,99.817329 
	C398.128693,97.555130 395.208344,95.201180 392.753693,94.325073 
	C389.561188,93.185600 385.866028,93.454514 381.518219,93.028633 
z"/>
<path fill="#090909" opacity="1.000000" stroke="none" 
	d="
M190.336670,72.836945 
	C192.453354,65.168640 199.439392,64.182396 204.761887,61.135525 
	C206.331924,60.236748 208.177170,59.795364 209.687836,58.821133 
	C212.745804,56.849033 214.592468,53.812641 213.276306,50.356972 
	C212.449677,48.186584 210.299072,45.945564 208.176285,44.976742 
	C204.886765,43.475418 201.112976,45.257557 198.835800,48.374466 
	C199.040268,48.781921 199.155304,49.338398 199.496323,49.635139 
	C201.128067,51.054932 204.350372,51.977184 202.111160,54.848713 
	C201.145035,56.087646 197.777420,57.205315 197.146210,56.615898 
	C195.452850,55.034698 193.141373,51.645493 193.784302,50.515167 
	C195.431519,47.619190 198.244812,44.093117 201.146332,43.490997 
	C206.163315,42.449890 211.738052,42.732468 216.825348,43.739830 
	C223.167633,44.995708 225.749802,48.982838 225.986435,55.665985 
	C226.245544,62.983658 226.142807,70.317055 226.538101,77.625183 
	C226.653137,79.752113 227.934158,81.815971 229.019043,84.857162 
	C225.147125,89.879166 217.888687,89.495422 213.451538,82.592773 
	C207.672028,86.929764 201.573318,90.392754 194.347702,86.060539 
	C189.413116,83.101952 189.531174,78.159660 190.336670,72.836945 
M213.005249,63.850407 
	C210.210037,60.527386 206.874695,62.128407 205.524887,64.480812 
	C203.605942,67.825104 202.625046,71.969528 202.275360,75.864738 
	C202.021622,78.690971 203.126373,82.188255 207.050034,82.255234 
	C211.020615,82.323013 213.097000,79.436157 213.472397,75.929047 
	C213.871078,72.204498 213.407486,68.387642 213.005249,63.850407 
z"/>
<path fill="#080808" opacity="1.000000" stroke="none" 
	d="
M285.034363,21.903482 
	C288.264679,21.903482 291.494995,21.903482 295.518890,21.903482 
	C287.634216,29.172596 291.373260,38.007034 290.917236,45.932537 
	C290.259399,57.364849 290.962067,68.873169 291.010223,80.349358 
	C291.033447,85.887604 289.054108,88.098251 284.332214,88.124588 
	C279.367493,88.152275 277.326782,86.225288 277.285919,80.631203 
	C277.169250,64.660324 277.111969,48.686245 277.326263,32.717388 
	C277.391357,27.868393 276.810577,24.295115 270.324860,25.015282 
	C270.419983,24.475353 270.515106,23.935423 270.610199,23.395494 
	C274.119873,22.873390 277.629517,22.351286 281.761230,22.167316 
	C283.266937,22.304792 284.150665,22.104137 285.034363,21.903482 
z"/>
<path fill="#070707" opacity="1.000000" stroke="none" 
	d="
M43.533073,21.926628 
	C43.951012,22.271452 43.901432,22.575754 43.747055,23.330502 
	C39.702579,23.758747 37.811420,25.879662 37.850742,29.656244 
	C37.947689,38.966362 38.283329,48.275143 38.292831,57.584698 
	C38.301632,66.205063 38.234077,74.838142 37.753971,83.440720 
	C37.534378,87.375435 34.340599,88.352081 30.796461,88.074318 
	C27.091551,87.783943 24.962683,85.955666 24.960802,82.067276 
	C24.955088,70.248283 24.946363,58.429287 24.948257,46.610294 
	C24.949030,41.782818 25.003263,36.955200 24.980808,32.127895 
	C24.951433,25.812967 23.515602,24.604546 17.207487,25.353449 
	C16.586155,25.427216 15.914827,25.079859 14.586737,24.768606 
	C24.277197,20.368364 33.813511,22.601219 43.533073,21.926628 
z"/>
<path fill="#090909" opacity="1.000000" stroke="none" 
	d="
M326.794678,79.046768 
	C320.257172,66.195274 323.461823,49.026077 337.406342,44.347191 
	C342.134033,42.760876 347.938263,42.930206 352.923370,43.929478 
	C359.231171,45.193882 360.284790,51.598423 355.090942,55.509266 
	C350.600800,58.890228 345.707916,61.804127 340.752228,64.478142 
	C336.587555,66.725334 336.026611,69.532799 337.967285,73.464783 
	C341.863037,81.357964 347.892212,84.717842 357.099487,81.838715 
	C350.563751,90.819885 332.402618,89.063568 326.794678,79.046768 
M336.687286,62.474651 
	C340.333282,60.687592 344.545166,59.506615 347.384491,56.855633 
	C348.786407,55.546738 348.237427,51.343266 347.444031,48.801334 
	C346.994781,47.361965 343.709656,45.388527 342.675476,45.847843 
	C340.555450,46.789452 338.243347,48.935211 337.553314,51.081318 
	C336.482971,54.410206 336.702179,58.153717 336.687286,62.474651 
z"/>
<path fill="#0B0B0B" opacity="1.000000" stroke="none" 
	d="
M305.569031,33.934044 
	C304.198700,28.203674 300.837494,24.721355 295.205414,22.827244 
	C300.727539,20.923929 310.657837,24.042873 314.422333,28.937395 
	C319.394226,35.401814 319.020172,42.684265 315.976501,49.750500 
	C313.535370,55.418022 308.599609,60.621410 298.414673,58.687141 
	C308.518188,52.764568 306.116547,43.258091 305.569031,33.934044 
z"/>
<path fill="#0D0D0D" opacity="1.000000" stroke="none" 
	d="
M256.339661,45.342583 
	C253.063141,36.544083 255.580429,29.012877 261.713928,28.273884 
	C260.793640,30.598532 259.360748,32.861378 259.071442,35.262028 
	C258.625610,38.962032 260.663116,40.032356 264.314880,39.189434 
	C266.017639,38.796398 267.976471,39.513046 269.819244,39.726707 
	C269.047729,42.205067 269.029907,45.671883 267.347076,46.955101 
	C263.891479,49.590122 259.851318,48.795799 256.339661,45.342583 
z"/>
<path fill="#0B0B0B" opacity="1.000000" stroke="none" 
	d="
M284.800568,21.779316 
	C284.150665,22.104137 283.266937,22.304792 282.192139,22.254066 
	C282.856262,21.886839 283.711517,21.770994 284.800568,21.779316 
z"/>
<path fill="#080808" opacity="1.000000" stroke="none" 
	d="
M269.508301,25.493813 
	C269.509552,25.513510 269.507080,25.474117 269.508301,25.493813 
z"/>
<path fill="#F6F6F6" opacity="1.000000" stroke="none" 
	d="
M439.603027,55.481026 
	C439.476959,59.558384 439.963226,63.391510 438.967987,66.790901 
	C438.139893,69.619377 436.051483,73.343552 433.663239,74.159576 
	C429.909760,75.442039 427.431763,71.496223 427.108093,68.334969 
	C426.494324,62.339699 426.648987,56.203022 427.156219,50.181679 
	C427.417236,47.083195 429.919586,44.081413 433.285339,45.206768 
	C435.626099,45.989426 437.389923,48.912796 439.037354,51.154736 
	C439.719452,52.083038 439.424500,53.729275 439.603027,55.481026 
z"/>
<path fill="#F9F9F9" opacity="1.000000" stroke="none" 
	d="
M444.391632,96.646484 
	C447.706238,100.296318 445.925873,102.951813 442.922089,104.601387 
	C436.654816,108.043175 429.820862,108.317970 423.273682,105.771523 
	C421.443176,105.059578 419.126221,101.395096 419.599945,99.896904 
	C420.413757,97.323250 423.287109,93.491486 425.223938,93.533157 
	C431.530884,93.668831 437.805267,95.317841 444.391632,96.646484 
z"/>
<path fill="#F3F3F3" opacity="1.000000" stroke="none" 
	d="
M83.118439,20.918049 
	C85.493225,23.931568 85.923943,26.879496 82.852966,28.917248 
	C81.254730,29.977758 77.970924,30.747313 76.923943,29.875799 
	C75.244469,28.477798 73.903831,25.563635 74.013885,23.370195 
	C74.206116,19.538881 78.303284,18.489120 83.118439,20.918049 
z"/>
<path fill="#F8F8F8" opacity="1.000000" stroke="none" 
	d="
M116.738701,45.150764 
	C121.199600,47.100296 123.047035,50.530228 122.903748,54.799690 
	C122.738907,59.711605 122.492744,64.706871 121.388107,69.458138 
	C120.955696,71.318085 117.960258,73.983582 116.375916,73.826302 
	C114.306923,73.620918 111.008659,71.139114 110.812607,69.354088 
	C110.099365,62.860226 110.054771,56.209244 110.687439,49.707943 
	C110.853104,48.005451 114.377762,46.629833 116.738701,45.150764 
z"/>
<path fill="#F9F9F9" opacity="1.000000" stroke="none" 
	d="
M122.826889,94.864273 
	C125.155022,96.642975 127.075691,98.337997 128.996368,100.033012 
	C127.176529,101.950348 125.575920,105.179161 123.493759,105.527222 
	C118.260437,106.402023 112.771294,106.394829 107.460617,105.909981 
	C104.381523,105.628868 101.978622,103.245934 102.871368,99.507973 
	C103.757538,95.797546 105.891510,93.076515 110.098564,93.344528 
	C114.219292,93.607040 118.313553,94.284981 122.826889,94.864273 
z"/>
<path fill="#F6F6F6" opacity="1.000000" stroke="none" 
	d="
M169.982086,59.967445 
	C169.147354,64.245506 168.910965,68.330750 167.318985,71.792610 
	C165.601913,75.526482 162.014877,75.387627 159.282761,72.179527 
	C155.580017,67.831703 155.070267,52.544529 158.469513,47.790672 
	C161.098068,44.114628 165.385910,43.724899 167.327972,47.689461 
	C169.054581,51.214169 169.161621,55.532234 169.982086,59.967445 
z"/>
<path fill="#F9F9F9" opacity="1.000000" stroke="none" 
	d="
M173.272278,104.384941 
	C166.906616,107.856308 160.587997,108.070389 154.197067,105.962708 
	C151.416321,105.045631 148.433853,103.103210 149.817291,99.937500 
	C150.970718,97.298111 153.792496,93.853020 156.172821,93.603622 
	C161.150436,93.082108 166.438248,93.957390 171.386917,95.142883 
	C176.843658,96.450111 177.436234,99.818390 173.272278,104.384941 
z"/>
<path fill="#F7F7F7" opacity="1.000000" stroke="none" 
	d="
M392.307281,65.936508 
	C391.515167,68.329185 391.094604,70.554977 389.883423,72.197830 
	C387.535278,75.382828 384.578583,75.193748 382.033752,72.101898 
	C378.042633,67.252922 377.541321,52.101093 381.612518,47.384781 
	C382.779175,46.033245 386.012756,44.721306 387.059784,45.375111 
	C389.223358,46.726154 391.591125,49.228619 392.005493,51.586071 
	C392.799805,56.105030 392.290192,60.853184 392.307281,65.936508 
z"/>
<path fill="#F9F9F9" opacity="1.000000" stroke="none" 
	d="
M381.952698,93.072952 
	C385.866028,93.454514 389.561188,93.185600 392.753693,94.325073 
	C395.208344,95.201180 398.128693,97.555130 398.736115,99.817329 
	C399.122253,101.255554 395.995789,104.842392 393.843903,105.499771 
	C389.667023,106.775726 385.064819,107.053825 380.642792,107.029579 
	C375.506683,107.001419 371.915924,103.785179 372.202148,100.358772 
	C372.598572,95.613922 376.020142,92.921715 381.952698,93.072952 
z"/>
<path fill="#F4F4F4" opacity="1.000000" stroke="none" 
	d="
M213.162842,64.230751 
	C213.407486,68.387642 213.871078,72.204498 213.472397,75.929047 
	C213.097000,79.436157 211.020615,82.323013 207.050034,82.255234 
	C203.126373,82.188255 202.021622,78.690971 202.275360,75.864738 
	C202.625046,71.969528 203.605942,67.825104 205.524887,64.480812 
	C206.874695,62.128407 210.210037,60.527386 213.162842,64.230751 
z"/>
<path fill="#F5F5F5" opacity="1.000000" stroke="none" 
	d="
M336.531006,62.098053 
	C336.702179,58.153717 336.482971,54.410206 337.553314,51.081318 
	C338.243347,48.935211 340.555450,46.789452 342.675476,45.847843 
	C343.709656,45.388527 346.994781,47.361965 347.444031,48.801334 
	C348.237427,51.343266 348.786407,55.546738 347.384491,56.855633 
	C344.545166,59.506615 340.333282,60.687592 336.531006,62.098053 
z"/>
</svg>